<svg xmlns="http://www.w3.org/2000/svg" width="720" height="600" font-family="Consolas, 'Courier New', monospace" font-size="14">
  <rect width="720" height="600" rx="10" fill="#1a1a1a"/>
  <rect width="720" height="34" rx="10" fill="#2d2d2d"/>
  <rect y="20" width="720" height="14" fill="#2d2d2d"/>
  <circle cx="22" cy="17" r="6" fill="#ff5f57"/>
  <circle cx="42" cy="17" r="6" fill="#ffbd2e"/>
  <circle cx="62" cy="17" r="6" fill="#28c840"/>
  <text x="84" y="21" fill="#888" font-size="12">Windows PowerShell - Administrator</text>
  <g xml:space="preserve">
    <text x="16" y="58"  fill="#58c8f5">    _    ____  __  __ ___ _   _</text>
    <text x="16" y="76"  fill="#58c8f5">   / \  |  _ \|  \/  |_ _| \ | |</text>
    <text x="16" y="94"  fill="#58c8f5">  / _ \ | | | | |\/| || ||  \| |</text>
    <text x="16" y="112" fill="#58c8f5"> / ___ \| |_| || |  | || || |\  |</text>
    <text x="16" y="130" fill="#58c8f5">/_/   \_\____/|_|  |_|___|_| \_|</text>
    <text x="16" y="148" fill="#58c8f5"> _   _ _   _ ____</text>
    <text x="16" y="166" fill="#58c8f5">| | | | | | | __ )</text>
    <text x="16" y="184" fill="#58c8f5">| |_| | | | |  _ \</text>
    <text x="16" y="202" fill="#58c8f5">|  _  | |_| | |_) |</text>
    <text x="16" y="220" fill="#58c8f5">|_| |_|\___/|____/</text>
    <text x="16" y="244" fill="#888">  Server Administration Console</text>
    <text x="16" y="268" fill="#555">  ============================================================</text>
    <text x="16" y="286" fill="#ffffff">  SERVER ADMIN MENU  -  SRV-DB01</text>
    <text x="16" y="304" fill="#555">  ============================================================</text>
    <text x="16" y="326" fill="#3fd07f">  [1]  Disk Space</text>
    <text x="16" y="344" fill="#3fd07f">  [2]  Top Resource Users (live)</text>
    <text x="16" y="362" fill="#f5c518">  [3]  Restart a Service</text>
    <text x="16" y="380" fill="#f5c518">  [4]  Pending Windows Updates</text>
    <text x="16" y="398" fill="#58c8f5">  [5]  Full System Health Check</text>
    <text x="16" y="416" fill="#3fd07f">  [M]  Top 10 Memory Usage</text>
    <text x="16" y="434" fill="#3fd07f">  [S]  Top 10 Swap/Page File</text>
    <text x="16" y="452" fill="#3fd07f">  [A]  Active User Sessions</text>
    <text x="16" y="470" fill="#d670d6">  [C]  Disk Cleanup (C: drive)</text>
    <text x="16" y="488" fill="#2a9d8f">  [E]  Export Health Report</text>
    <text x="16" y="506" fill="#ff5f57">  [0]  Exit to Shell</text>
    <text x="16" y="524" fill="#555">  ============================================================</text>
    <text x="16" y="546" fill="#7a7a7a">  Tip: after a task, press <tspan fill="#ff5f57">[X]</tspan> then Enter to exit  -  type <tspan fill="#58c8f5">Show-AdminMenu</tspan> to reopen.</text>
    <text x="16" y="574" fill="#d4d4d4">  &gt; Select an option_</text>
  </g>
</svg>
